<svg xmlns="http://www.w3.org/2000/svg" width="165" height="15" viewBox="0 0 165 15"><g transform="translate(-545 1874) rotate(-90)"><circle cx="7.5" cy="7.5" r="7.5" transform="translate(1859 545)" fill="#308991"/><path d="M7.5,1A6.5,6.5,0,1,0,14,7.5,6.507,6.507,0,0,0,7.5,1m0-1A7.5,7.5,0,1,1,0,7.5,7.5,7.5,0,0,1,7.5,0Z" transform="translate(1859 575)"/><path d="M7.5,1A6.5,6.5,0,1,0,14,7.5,6.507,6.507,0,0,0,7.5,1m0-1A7.5,7.5,0,1,1,0,7.5,7.5,7.5,0,0,1,7.5,0Z" transform="translate(1859 605)"/><path d="M7.5,1A6.5,6.5,0,1,0,14,7.5,6.507,6.507,0,0,0,7.5,1m0-1A7.5,7.5,0,1,1,0,7.5,7.5,7.5,0,0,1,7.5,0Z" transform="translate(1859 635)"/><path d="M7.5,1A6.5,6.5,0,1,0,14,7.5,6.507,6.507,0,0,0,7.5,1m0-1A7.5,7.5,0,1,1,0,7.5,7.5,7.5,0,0,1,7.5,0Z" transform="translate(1859 665)"/><path d="M7.5,1A6.5,6.5,0,1,0,14,7.5,6.507,6.507,0,0,0,7.5,1m0-1A7.5,7.5,0,1,1,0,7.5,7.5,7.5,0,0,1,7.5,0Z" transform="translate(1859 695)"/></g></svg>