<svg xmlns="http://www.w3.org/2000/svg" width="41" height="189" viewBox="0 0 41 189"><g transform="translate(-1788 -4792)"><rect width="41" height="189" rx="20.5" transform="translate(1788 4792)" fill="#0d4e53"/><g transform="translate(-57 4273)"><circle cx="6.5" cy="6.5" r="6.5" transform="translate(1859 545)" fill="#fff"/><path d="M6.5,1A5.5,5.5,0,1,0,12,6.5,5.506,5.506,0,0,0,6.5,1m0-1A6.5,6.5,0,1,1,0,6.5,6.5,6.5,0,0,1,6.5,0Z" transform="translate(1859 570)" fill="#fff"/><path d="M6.5,1A5.5,5.5,0,1,0,12,6.5,5.506,5.506,0,0,0,6.5,1m0-1A6.5,6.5,0,1,1,0,6.5,6.5,6.5,0,0,1,6.5,0Z" transform="translate(1859 595)" fill="#fff"/><path d="M6.5,1A5.5,5.5,0,1,0,12,6.5,5.506,5.506,0,0,0,6.5,1m0-1A6.5,6.5,0,1,1,0,6.5,6.5,6.5,0,0,1,6.5,0Z" transform="translate(1859 620)" fill="#fff"/><path d="M6.5,1A5.5,5.5,0,1,0,12,6.5,5.506,5.506,0,0,0,6.5,1m0-1A6.5,6.5,0,1,1,0,6.5,6.5,6.5,0,0,1,6.5,0Z" transform="translate(1859 645)" fill="#fff"/><path d="M6.5,1A5.5,5.5,0,1,0,12,6.5,5.506,5.506,0,0,0,6.5,1m0-1A6.5,6.5,0,1,1,0,6.5,6.5,6.5,0,0,1,6.5,0Z" transform="translate(1859 670)" fill="#fff"/></g></g></svg>