<svg xmlns="http://www.w3.org/2000/svg" xmlns:xlink="http://www.w3.org/1999/xlink" width="63.385" height="63.385" viewBox="0 0 63.385 63.385"><defs><clipPath id="a"><rect width="63.385" height="63.385" fill="none"/></clipPath></defs><g transform="translate(0 0)"><g transform="translate(0 0)" clip-path="url(#a)"><path d="M57.534,63.385H5.852A5.851,5.851,0,0,1,0,57.534V5.851A5.851,5.851,0,0,1,5.852,0H57.534a5.851,5.851,0,0,1,5.85,5.851V57.534a5.851,5.851,0,0,1-5.85,5.851" transform="translate(0 0)" fill="#308991"/><path d="M9.687,12.123H21.569V16.9c5.113-4.454,9.024-6.125,14.439-6.125,5.113,0,9.851,1.91,12.783,5.251,2.858,3.182,3.76,6.523,3.76,13.683V51.341H40.67V30.578c0-3.977-.751-6.284-2.631-8.034a9.666,9.666,0,0,0-6.544-2.387c-6.166,0-9.926,4.058-9.926,10.74V51.341H9.687Z" transform="translate(0.573 0.638)" fill="#fff"/></g></g></svg>